<svg width="344" height="271" viewBox="0 0 344 271" fill="none" xmlns="http://www.w3.org/2000/svg">
<g filter="url(#filter0_d_57_83)">
<path d="M178.847 35.7709C178.91 35.8594 178.944 35.9654 178.944 36.0741C178.944 36.4057 178.639 36.6532 178.314 36.5845L173.392 35.5432C173.079 35.477 172.76 35.4436 172.44 35.4436H170.517C169.886 35.4436 169.262 35.3188 168.68 35.0763L168.582 35.0354C168.309 34.9218 168.025 34.84 167.733 34.7914C167.109 34.6873 166.519 34.4308 166.017 34.0446L165.689 33.792C165.414 33.5808 165.16 33.3442 164.93 33.0854L162.496 30.3471L160.882 28.6378C160.646 28.3879 160.389 28.1585 160.114 27.9523L159.612 27.5758C159.299 27.3408 158.941 27.1708 158.562 27.0758L158.235 26.9943C158.219 26.9902 158.202 26.9881 158.185 26.9881C158.071 26.9881 157.979 27.0805 157.979 27.1944V28.1266C157.979 28.2905 157.93 28.4509 157.839 28.5873L157.814 28.6247C157.77 28.6913 157.713 28.7484 157.646 28.7928L157.573 28.8415C157.464 28.9145 157.327 28.9329 157.202 28.8913C157.105 28.8591 157.023 28.7934 156.971 28.7061L156.705 28.2622L155.546 26.1773L152.882 21.0808C152.767 20.8106 152.535 20.2469 152.535 20.1542C152.535 20.0996 152.481 19.8274 152.421 19.542C152.345 19.1788 152.219 18.8281 152.053 18.4963C151.835 18.06 151.548 17.6618 151.203 17.3169L150.961 17.0746C150.698 16.8119 150.408 16.5787 150.094 16.3792L149.795 16.1886C149.462 15.9771 149.094 15.8289 148.707 15.7516L148.485 15.7073C148.253 15.6607 148.013 15.6569 147.779 15.6959C147.554 15.7335 147.337 15.8103 147.138 15.9228L144.774 17.2585C143.467 18.0277 142.259 18.9555 141.179 20.0207L136.644 24.4916C135.273 25.8427 134.06 27.3444 133.027 28.968L131.508 31.3547C131.395 31.5317 131.305 31.7219 131.238 31.9211L131.188 32.0729C131.134 32.2341 131.107 32.4028 131.107 32.5727C131.107 32.9315 131.229 33.2797 131.453 33.5599L131.458 33.5669C131.533 33.6595 131.617 33.7436 131.709 33.8176C131.994 34.0454 132.348 34.1695 132.712 34.1695H133.307L138.404 33.7062L140.141 33.5904H142.574L144.543 33.7062C145.388 33.783 146.239 33.7375 147.071 33.5711L148.173 33.3509C148.917 33.202 149.674 33.127 150.433 33.127H151.417C152.004 33.127 152.587 33.0324 153.144 32.8467C153.509 32.7251 153.886 32.6361 154.27 32.6189C154.566 32.6056 154.86 32.61 154.967 32.6637C155.018 32.689 155.098 32.7206 155.194 32.7547C155.679 32.9278 156.214 32.7391 156.523 32.327C156.642 32.1677 156.722 31.9821 156.755 31.7857L156.815 31.4251C156.819 31.4015 156.824 31.3782 156.832 31.3555L156.851 31.2992C156.902 31.1457 157.046 31.0421 157.207 31.0421C157.328 31.0421 157.442 31.1001 157.512 31.198L158.906 33.127L159.832 34.517L160.43 35.5024C161.337 36.9951 162.508 38.3097 163.886 39.3818L165.971 40.8876L167.245 41.8142L167.303 41.8574C167.878 42.2887 168.523 42.6172 169.21 42.8286C169.521 42.9244 169.84 42.9956 170.162 43.0417L171.299 43.2041C171.84 43.2814 172.944 43.4358 173.037 43.4358C173.081 43.4358 173.299 43.5051 173.563 43.5945C174.139 43.7899 174.682 44.0697 175.189 44.4072C175.606 44.6855 175.995 45.0045 176.35 45.3593L176.454 45.4628C176.877 45.8865 177.258 46.351 177.59 46.8495L178.017 47.4898L179.291 49.4589L180.102 51.1963L180.663 52.4105C180.752 52.6042 180.818 52.8078 180.86 53.0171L180.873 53.0799C180.9 53.2138 180.913 53.35 180.913 53.4866V53.9695C180.913 53.9739 180.912 53.9783 180.91 53.9822C180.895 54.0126 180.936 54.0394 180.958 54.0131L182.37 52.2986C182.402 52.2594 182.423 52.2123 182.43 52.1622L182.556 51.3235C182.69 50.4279 182.869 49.4421 182.86 48.5365C182.859 48.4616 182.865 48.4164 182.882 48.4164H182.998L183.577 49.9222C183.962 51.3076 184.187 52.7325 184.249 54.169L184.272 54.7105L184.388 56.5638L184.783 58.9985C184.828 59.2792 184.851 59.563 184.851 59.8473C184.851 60.2562 184.898 60.6636 184.992 61.0616L185.105 61.5394C185.244 62.1329 185.44 62.7116 185.691 63.2676L185.788 63.4842C186.166 64.3242 186.639 65.1178 187.199 65.8494L187.863 66.7174C188.326 67.4124 189.276 68.8255 189.369 68.9181L190.295 69.8448L190.306 69.8525C190.6 70.0731 190.957 70.1923 191.325 70.1923C191.562 70.1923 191.797 70.1424 192.014 70.0459L192.241 69.9451C192.563 69.8022 192.855 69.6013 193.104 69.3525L193.249 69.2071C193.518 68.9386 193.823 68.71 194.157 68.5282L194.928 68.1073C195.466 67.8769 196.034 67.7238 196.616 67.6671C196.758 67.6533 196.865 67.644 196.897 67.644C197.604 67.644 198.241 68.0761 198.829 68.4683L198.982 68.5706L199.909 69.2656C200.602 69.6506 201.334 69.9597 202.094 70.1874L202.11 70.1923C202.648 70.3459 203.204 70.4239 203.764 70.4239H206.725C207.739 70.4239 208.752 70.5014 209.754 70.6556L212.534 71.3505L214.619 71.9297L216.704 72.5088L219.021 73.3196C219.558 73.4732 220.116 73.5445 220.674 73.5312L222.08 73.4977C223.811 73.4565 225.518 73.1039 227.137 72.4903C227.643 72.2986 228.018 72.1613 228.055 72.1613C228.171 72.1613 229.677 71.3505 229.793 71.3505C231.104 71.3505 231.888 69.7699 233.052 69.1648L234.194 68.5706L236.627 67.5282L239.175 66.7174L240.476 66.2582C240.919 66.1016 241.381 66.0026 241.85 65.9636L241.897 65.9597C242.32 65.9244 242.746 65.9419 243.164 66.0116L243.792 66.1162C243.879 66.1308 243.964 66.1585 244.044 66.1982C244.387 66.3699 244.582 66.7421 244.528 67.1222L244.271 68.9181L244.04 70.6556L243.692 71.9297C243.076 73.6234 242.277 75.245 241.31 76.7655L241.144 77.0262L239.638 79.5744L238.596 81.4276L237.785 83.3967L237.206 85.4817C236.9 87.4702 236.859 89.5061 237.09 91.5047L237.553 95.7904L237.785 98.4545L238.364 102.972L238.827 108.416C238.827 109.569 238.676 110.717 238.376 111.831L238.017 113.165L236.019 118.116C235.579 119.206 235.353 120.371 235.353 121.548C235.353 121.982 235.322 122.415 235.26 122.845L235.213 123.176C235.075 124.142 234.804 125.084 234.408 125.975L234.255 126.319C234.137 126.584 234 126.839 233.843 127.083C233.314 127.906 232.581 128.578 231.715 129.034L230.835 129.497L227.592 130.655L227.055 130.801C225.72 131.165 224.343 131.35 222.959 131.35L220.642 131.118L218.557 130.771L216.588 130.192L215.654 129.818C215.121 129.605 214.623 129.315 214.175 128.956L213.909 128.743C213.765 128.628 213.609 128.528 213.444 128.446C213.001 128.224 212.504 128.133 212.011 128.182L211.93 128.19C211.716 128.212 211.505 128.257 211.3 128.325L211.195 128.36C210.554 128.574 209.98 128.95 209.529 129.451C209.294 129.712 209.096 130.003 208.939 130.317L208.559 131.076C208.353 131.489 208.196 131.925 208.092 132.374C207.966 132.924 207.919 133.489 207.954 134.052L207.957 134.099C207.997 134.734 208.134 135.358 208.364 135.95L208.408 136.061C208.686 136.776 209.081 137.44 209.577 138.026L210.102 138.647L213.808 143.512L214.658 144.786C214.709 144.863 214.746 144.947 214.769 145.037C214.821 145.247 214.956 145.427 215.143 145.536L217.631 146.987L218.789 147.798L220.642 148.956L221.148 149.31C221.581 149.613 221.965 149.979 222.29 150.396L222.568 150.754C222.597 150.791 222.622 150.83 222.643 150.872C222.817 151.221 222.676 151.646 222.327 151.82L222.264 151.852L221.576 152.281C221.42 152.379 221.294 152.518 221.211 152.683L221.201 152.703C221.138 152.829 221.106 152.967 221.106 153.107C221.106 153.271 221.15 153.431 221.234 153.572L221.379 153.813C221.428 153.895 221.483 153.973 221.544 154.047C222.303 154.967 223.681 156.654 223.77 156.832C223.843 156.979 224.932 158.098 225.805 158.98C226.222 159.401 226.686 159.773 227.186 160.091C227.533 160.312 227.864 160.559 228.174 160.83L228.286 160.929C229.13 161.667 229.829 162.551 230.419 163.505C230.51 163.653 230.578 163.756 230.604 163.782C230.696 163.875 232.187 165.133 232.92 165.751L237.206 169.573L238.248 170.5L238.359 170.611C238.82 171.072 239.375 171.429 239.986 171.658L241.491 172.122L242.418 172.353L242.497 172.376C242.978 172.513 243.485 172.534 243.975 172.436L244.344 172.362C244.373 172.356 244.4 172.347 244.427 172.333C244.632 172.231 244.877 172.364 244.903 172.592L244.947 172.986C244.959 173.102 244.939 173.22 244.886 173.324L244.711 173.676C244.65 173.798 244.576 173.913 244.491 174.019L244.01 174.62C243.802 174.879 243.525 175.073 243.21 175.178L242.819 175.309C242.709 175.345 242.615 175.417 242.551 175.513C242.467 175.639 242.442 175.797 242.484 175.943L242.54 176.14C242.61 176.385 242.775 176.593 242.998 176.717L243.692 177.102L246.356 178.376L249.02 179.65L251.423 180.551C251.674 180.646 251.918 180.759 252.152 180.891L252.501 181.087C253.249 181.508 253.844 182.158 254.196 182.942C254.522 183.666 254.626 184.47 254.496 185.253L254.405 185.796C254.367 186.023 254.308 186.245 254.227 186.46C253.863 187.431 253.093 188.195 252.118 188.551L249.123 189.644C247.313 190.305 245.357 190.454 243.468 190.077L241.723 189.728L235.7 188.106L231.183 186.484L229.176 185.433C228.893 185.285 228.625 185.11 228.375 184.91C227.858 184.496 227.429 183.984 227.112 183.404L226.897 183.009C226.444 181.802 225.639 180.759 224.585 180.015L224.233 179.766L221.801 178.261L218.557 175.596L215.546 172.932L212.65 170.268L209.175 167.141L206.859 164.709L204.31 162.16L201.994 159.496L199.677 157.296L199.284 156.942C198.78 156.488 198.186 156.142 197.542 155.927L197.301 155.847C196.957 155.732 196.597 155.674 196.235 155.674H196.124C195.793 155.674 195.464 155.734 195.154 155.85C194.851 155.963 194.571 156.129 194.326 156.339L194.241 156.412C194.005 156.614 193.798 156.847 193.626 157.106L193.372 157.487C193.251 157.668 193.146 157.859 193.058 158.057C192.84 158.548 192.728 159.079 192.728 159.616V161.465C192.728 162.774 192.871 164.079 193.155 165.357L193.191 165.519L193.564 166.702C193.776 167.374 194.122 167.996 194.581 168.531C194.965 169.068 195.427 169.546 195.951 169.947L196.52 170.381C196.924 170.691 197.37 170.94 197.845 171.123C198.368 171.324 198.92 171.442 199.48 171.471L199.784 171.487C200.481 171.524 201.17 171.662 201.828 171.897C202.246 172.046 202.65 172.234 203.035 172.458L203.847 172.932L205.121 173.627L205.954 174.082C206.245 174.24 206.498 174.459 206.697 174.724C206.954 175.067 207.111 175.475 207.15 175.902L207.206 176.523C207.245 177.179 207.322 178.562 207.322 178.84C207.322 179.072 207.16 179.913 207.039 180.499C206.997 180.705 206.922 180.901 206.817 181.084C206.618 181.433 206.319 181.716 205.959 181.896L204.37 182.69C203.792 182.979 203.181 183.197 202.549 183.334C201.948 183.464 201.358 183.589 201.299 183.589C201.206 183.589 199.253 183.743 198.287 183.82L194.697 183.704L192.901 183.576C191.947 183.508 191.019 183.236 190.179 182.778L187.399 181.504L185.778 180.577L183.925 179.303L183.245 178.728C182.695 178.263 182.182 177.756 181.71 177.211C181.18 176.599 180.703 175.942 180.287 175.248L179.871 174.554L179.176 173.048L178.596 171.311L178.469 170.8C178.4 170.525 178.277 170.268 178.108 170.041C178.048 169.961 177.982 169.885 177.911 169.814L177.89 169.794C177.744 169.647 177.58 169.52 177.403 169.413L177.091 169.226L176.875 169.118C176.864 169.113 176.853 169.108 176.842 169.104C176.679 169.05 176.512 169.171 176.512 169.343V169.402C176.512 169.438 176.522 169.474 176.542 169.504C176.65 169.665 176.467 169.862 176.298 169.766L176.199 169.709C176.176 169.696 176.155 169.679 176.139 169.658L175.893 169.351C175.766 169.191 175.66 169.015 175.579 168.827L175.264 168.09C175.092 167.69 174.953 167.276 174.847 166.853L174.658 166.098L174.191 164.884C174.117 164.69 174.027 164.502 173.924 164.321C173.72 163.964 173.57 163.577 173.481 163.175L173.384 162.739L173.05 161.18C173.041 161.139 173.037 161.096 173.037 161.054V160.569C173.037 160.342 172.798 160.195 172.595 160.296C172.58 160.303 172.567 160.312 172.554 160.321L171.763 160.886L171.658 160.956C171.496 161.064 171.346 161.187 171.209 161.324L171.15 161.383C171.018 161.515 170.871 161.63 170.711 161.726L170.436 161.891C170.394 161.916 170.348 161.934 170.301 161.943L170.231 161.957C170.005 162.002 169.793 161.829 169.793 161.598C169.793 161.512 169.823 161.429 169.878 161.364L170.184 160.997C170.309 160.847 170.407 160.677 170.473 160.494L170.836 159.496L171.415 157.643L171.647 156.253L171.707 155.799C171.821 154.949 171.8 154.086 171.647 153.241L170.952 150.925L170.373 149.535L169.214 146.408L168.023 144.024C167.814 143.606 167.575 143.203 167.309 142.818C166.882 142.202 166.386 141.636 165.831 141.131L165.392 140.732C164.933 140.196 164.377 139.752 163.753 139.422L162.728 138.879L162.566 138.791C161.933 138.445 161.141 138.631 160.727 139.222C160.671 139.302 160.624 139.387 160.585 139.477L160.311 140.117C160.301 140.141 160.287 140.163 160.271 140.184C160.109 140.386 159.783 140.292 159.755 140.034L159.614 138.773C159.605 138.689 159.583 138.608 159.549 138.531L159.137 137.605L159.061 137.338C158.958 136.979 158.782 136.646 158.543 136.359C158.399 136.186 158.234 136.032 158.051 135.901L155.431 134.014L154.893 133.721C154.561 133.54 154.157 133.78 154.157 134.158C154.157 134.216 154.167 134.273 154.187 134.328L154.62 135.52L154.787 135.939C154.829 136.042 154.829 136.156 154.787 136.259C154.696 136.487 154.433 136.593 154.209 136.491L153.557 136.195C153.418 136.132 153.293 136.04 153.19 135.926L152.303 134.941L151.145 133.782L150.643 133.137C150.439 132.874 150.284 132.577 150.186 132.259C149.983 131.6 149.54 131.041 148.945 130.694L147.55 129.88C147.245 129.702 146.953 129.5 146.678 129.277L145.238 128.107L145.023 127.927C144.71 127.667 144.326 127.506 143.921 127.465C143.569 127.43 143.215 127.487 142.891 127.631L142.683 127.723C142.457 127.824 142.244 127.953 142.05 128.108L141.184 128.802L140.141 129.497C139.948 129.612 139.539 129.844 139.446 129.844C139.354 129.844 138.79 131.08 138.52 131.697L136.564 135.706C136.324 136.199 136.122 136.709 135.961 137.233C135.814 137.712 135.701 138.2 135.622 138.695L135.392 140.153L135.161 142.701V144.554V149.072L136.203 156.716C136.203 157.948 136.339 159.176 136.609 160.378L137.335 163.611C137.429 164.032 137.322 164.631 137.709 164.824C137.746 164.843 137.83 164.895 137.945 164.972C139.271 165.844 140.647 166.641 142.11 167.257L142.52 167.498C143.558 168.108 144.618 168.722 145.469 169.573C145.51 169.614 145.727 169.743 146.001 169.899C146.713 170.304 147.339 170.847 147.815 171.513L147.853 171.567C148.116 171.935 148.326 172.338 148.478 172.763L148.536 172.924C148.729 173.464 148.806 174.039 148.762 174.61C148.729 175.033 148.631 175.449 148.47 175.842L148.147 176.631C147.836 177.391 147.305 178.041 146.622 178.496C145.946 178.947 145.152 179.187 144.34 179.187H143.384L139.91 178.724L137.142 178.329C136.825 178.283 136.506 178.261 136.185 178.261H135.783C135.218 178.261 134.659 178.364 134.132 178.567C133.663 178.748 133.226 179.004 132.84 179.326L132.605 179.521C132.225 179.838 131.81 180.11 131.367 180.331C130.584 180.723 129.729 180.95 128.855 180.998L121.84 181.388L116.847 181.082C116.393 181.054 115.941 180.993 115.496 180.9L115.202 180.838C114.382 180.665 113.597 180.357 112.879 179.926C112.445 179.666 112.039 179.362 111.665 179.02L111.553 178.917C111.077 178.481 110.649 177.994 110.276 177.467L109.447 176.291L109.374 176.171C108.733 175.101 108.287 173.926 108.057 172.701C107.941 172.16 107.709 171.033 107.709 170.847C107.709 170.662 107.864 168.763 107.941 167.836C107.975 167.596 107.677 167.459 107.517 167.642L107.276 167.918C107.256 167.94 107.239 167.965 107.226 167.992L106.783 168.878C106.698 169.104 106.367 169.059 106.345 168.819L106.319 168.531L106.11 167.483C106.095 167.41 106.098 167.336 106.119 167.264L106.369 166.387C106.423 166.2 106.199 166.059 106.053 166.187C105.913 166.309 105.698 166.185 105.733 166.003L106.397 162.586C106.422 162.457 106.429 162.326 106.417 162.196C106.333 161.3 106.174 159.784 106.088 159.612C105.997 159.431 105.386 157.108 105.069 155.882C105.053 155.82 105.043 155.758 105.039 155.694L104.991 154.984C104.963 154.553 104.493 154.302 104.119 154.516L102.381 155.442L101.435 156.073C101.372 156.115 101.323 156.174 101.293 156.244L101.247 156.352C101.14 156.6 100.797 156.624 100.657 156.392C100.648 156.376 100.64 156.361 100.634 156.344C100.554 156.143 100.412 155.763 100.412 155.674C100.412 154.92 100.818 154.225 101.351 153.692L101.918 153.126L103.424 151.157L103.884 150.338C104.269 149.654 104.523 148.905 104.634 148.128C104.676 147.831 104.698 147.531 104.698 147.231V146.876C104.698 145.95 104.584 145.026 104.359 144.127L104.35 144.091L104.202 143.677C103.917 142.879 103.488 142.14 102.937 141.496L102.827 141.368C102.531 141.022 102.278 140.642 102.075 140.236C101.893 139.873 101.752 139.491 101.656 139.097C101.461 138.285 101.223 137.244 101.223 137.025V134.941C100.452 135.249 99.6511 135.47 98.846 135.672C98.7267 135.701 98.6262 135.729 98.5587 135.751C98.409 135.801 98.2077 135.809 98.0237 135.799C97.7628 135.785 97.5176 135.683 97.2936 135.548L97.1135 135.44C97.0733 135.416 97.0362 135.387 97.003 135.354L96.9627 135.314C96.9458 135.297 96.9317 135.277 96.9209 135.256L96.915 135.244C96.8632 135.14 96.9052 135.014 97.0087 134.963C97.0378 134.948 97.0699 134.941 97.1024 134.941H97.2393C97.4186 134.941 97.5925 134.88 97.7325 134.768L97.9092 134.626C98.0325 134.528 98.1387 134.409 98.2234 134.276L98.9062 133.203L99.9442 131.316C100.101 131.031 100.22 130.727 100.299 130.411C100.374 130.111 100.412 129.804 100.412 129.495V128.57L100.49 127.788C100.515 127.538 100.575 127.293 100.668 127.061C100.729 126.909 100.776 126.752 100.808 126.592L101.339 123.937L101.686 122.084L101.802 120.578C102.149 118.725 102.844 114.972 102.844 114.786C102.844 114.601 103.462 111.466 103.771 109.922C103.925 109.072 104.234 107.35 104.234 107.257C104.234 107.165 103.925 105.52 103.771 104.709L103.424 102.393L102.729 99.2653L102.265 96.2537L101.861 94.6928C101.59 93.6505 101.229 92.6341 100.78 91.6553C100.381 90.7841 100.051 89.8829 99.7921 88.96L99.3695 87.4507C98.9074 85.8334 98.6119 84.173 98.4877 82.4955L98.4429 81.891V78.9952L98.6745 77.142L98.7904 75.4045L99.3695 69.6131L99.8328 64.5166L99.8488 63.9112C99.9152 61.3887 100.759 58.932 100.759 56.4086C100.759 55.9453 101.918 51.5052 102.497 49.3431C103.308 46.0226 104.929 39.3355 104.929 39.1501C104.929 38.9185 106.203 35.6753 106.203 35.4436C106.203 35.2583 107.13 33.4359 107.593 32.5479L109.099 30.1155L109.899 28.8233C110.368 28.0665 110.734 27.2512 110.99 26.3986C111.196 25.7125 111.329 25.0065 111.386 24.2924L111.433 23.7011C111.499 22.8821 111.498 22.0592 111.44 21.2397C111.426 21.0346 111.416 20.8823 111.416 20.8492C111.416 20.7565 111.184 19.4978 111.068 18.8801L110.721 17.2585L110.257 15.8685L109.91 14.0153L109.678 12.9728L109.642 12.7934C109.59 12.5307 109.601 12.2593 109.674 12.0018L109.757 11.7137C109.781 11.6279 109.827 11.5498 109.89 11.4867C110.042 11.3349 110.271 11.2908 110.468 11.3754L111.375 11.7638C111.631 11.8736 111.861 12.0362 112.05 12.241L113.153 13.4361L113.329 13.6711C114.136 14.7464 114.815 15.9113 115.354 17.1427C115.756 18.1253 117.132 18.1676 117.593 17.2115L117.947 16.4789C117.994 16.3811 118.031 16.2793 118.058 16.174C118.301 15.2079 118.741 13.5238 118.829 13.4361C118.857 13.4078 118.93 13.1757 119.025 12.8353C119.553 10.9393 119.293 7.41304 121.261 7.41304C121.349 7.41304 123.162 5.83187 124.209 4.90739C124.327 4.80348 124.47 4.73276 124.624 4.70196C125.293 4.56807 125.857 5.2073 125.641 5.85493L125.431 6.48641L124.659 9.46361C124.633 9.56255 124.63 9.66587 124.648 9.76643C124.742 10.2817 125.345 10.5182 125.764 10.204L126.705 9.49796L131.222 5.32812L133.106 3.98308C134.547 2.95345 136.113 2.1106 137.767 1.47469C139.114 0.956266 140.512 0.577614 141.938 0.349512C143.083 0.166337 144.14 0 144.195 0C146.893 0 149.574 0.413303 152.206 1.00418L153.925 1.38995L154.546 1.60426C156.36 2.22974 158.066 3.13443 159.601 4.28567L162.728 6.94973L165.624 9.15047C167.15 10.2192 168.625 11.9304 170.488 11.9304C170.581 11.9304 172.38 12.4709 173.268 12.7412C174.013 12.954 174.274 13.8765 173.75 14.4477L173.679 14.5258C173.637 14.5715 173.591 14.6136 173.542 14.6516L172.888 15.1608C172.679 15.3234 172.454 15.4649 172.217 15.5832C171.839 15.7723 171.434 15.9005 171.016 15.9632L169.33 16.216L167.562 16.3044C167.198 16.3226 166.834 16.287 166.481 16.1986L166.103 16.1043C166.092 16.1016 166.082 16.0977 166.072 16.0927C165.936 16.0249 165.795 16.1734 165.869 16.3053L166.666 17.7218L167.67 19.3654C167.849 19.6571 167.972 19.9792 168.033 20.3156C168.124 20.8161 168.351 21.282 168.689 21.6622L169.098 22.1233C169.56 22.8159 170.102 23.4519 170.712 24.0183L171.415 24.6715L173.847 26.5248L175.585 27.6831L176.604 28.2491C176.619 28.2578 176.634 28.2687 176.646 28.2814C176.746 28.3809 176.709 28.55 176.578 28.5994L176.066 28.7913C175.978 28.8241 175.884 28.8339 175.791 28.8197L174.755 28.6603C174.537 28.6266 174.32 28.577 174.109 28.5119L172.937 28.1514C172.926 28.1481 172.916 28.1438 172.905 28.1387C172.74 28.0561 172.557 28.2145 172.616 28.3899L172.762 28.8275C172.79 28.9116 172.845 28.9839 172.919 29.033L173.785 29.6107C174.057 29.7919 174.301 30.0109 174.511 30.2611L177.206 33.4745L178.847 35.7709Z" fill="white"/>
<path d="M217.515 110.385V111.659L217.862 112.238L218.673 113.049L219.368 113.628L220.063 113.975L220.526 114.091L220.179 113.396L220.063 112.586L220.179 111.775L220.295 111.311V111.196L217.515 110.385Z" fill="black" stroke="black"/>
<path d="M221.221 111.66V112.703C221.221 112.796 221.376 113.359 221.453 113.63L221.8 114.093L222.148 114.44L222.495 114.556L223.306 114.324L224.001 113.745L224.58 112.935L224.696 112.819L224.349 112.703L224.117 113.282L223.769 113.63L223.306 113.861L223.074 113.745L222.959 113.398L222.843 112.935V112.24L222.379 112.008L221.685 111.776L221.337 111.66H221.221Z" fill="black"/>
<path d="M235.236 111.776L235.931 111.429V112.355V112.935L236.047 113.166L236.395 113.282L236.858 112.008L236.974 111.66V111.313V110.965L237.321 110.85L237.437 111.197V111.66L237.321 112.24L236.974 112.819L236.626 113.282L235.931 113.514L235.7 113.398L235.584 113.166L235.468 112.819L235.352 112.355L235.236 112.124V111.776Z" fill="black"/>
<path d="M234.194 112.471L233.847 112.819L234.542 113.514L234.194 112.471Z" fill="black"/>
<path d="M221.221 111.66C221.221 111.969 221.221 112.61 221.221 112.703M221.221 111.66H221.337L221.685 111.776L222.379 112.008L222.843 112.24V112.935L222.959 113.398L223.074 113.745L223.306 113.861L223.769 113.63L224.117 113.282L224.349 112.703L224.696 112.819L224.58 112.935L224.001 113.745L223.306 114.324L222.495 114.556L222.148 114.44L221.8 114.093L221.453 113.63C221.376 113.359 221.221 112.796 221.221 112.703M221.221 111.66V112.703M235.236 111.776L235.931 111.429V112.355V112.935L236.047 113.166L236.395 113.282L236.858 112.008L236.974 111.66V111.313V110.965L237.321 110.85L237.437 111.197V111.66L237.321 112.24L236.974 112.819L236.626 113.282L235.931 113.514L235.7 113.398L235.584 113.166L235.468 112.819L235.352 112.355L235.236 112.124V111.776ZM234.194 112.471L233.847 112.819L234.542 113.514L234.194 112.471Z" stroke="black"/>
<path d="M95.2423 157.274C95.6959 157.15 96.0105 156.738 96.0105 156.268C96.0105 156.106 95.9728 155.946 95.9005 155.801L95.7179 155.436C95.4564 154.913 95.0362 154.486 94.5174 154.217L93.205 153.534C92.6834 153.263 92.1312 153.055 91.5601 152.916L89.7891 152.484C88.3803 152.141 86.9414 151.934 85.4927 151.869L85.0409 151.848C83.3999 151.773 81.7557 151.848 80.1283 152.072L78.4408 152.303C77.2604 152.465 76.0955 152.725 74.9583 153.081C73.6296 153.496 72.3446 154.039 71.1212 154.704L70.5939 154.99C69.471 155.599 68.4021 156.303 67.3985 157.094C65.8622 158.304 64.49 159.71 63.3164 161.274L62.6518 162.16L60.6827 165.635L59.177 168.763L58.223 171.052C57.7016 172.304 57.2818 173.595 56.9677 174.914C56.5116 176.83 56.2812 178.792 56.2812 180.761V182.087C56.2812 182.778 56.3321 183.469 56.4334 184.153C56.6397 185.545 57.0533 186.899 57.6606 188.168L58.0187 188.917L58.9074 190.361C59.5489 191.404 60.29 192.381 61.1202 193.281C62.1377 194.383 63.2825 195.361 64.5307 196.193L64.8779 196.424C66.1703 197.286 67.5474 198.014 68.994 198.579C70.3047 199.091 71.5707 199.573 71.6865 199.573C71.713 199.573 71.8222 199.597 71.9959 199.639C76.1305 200.648 80.3051 201.504 84.5435 201.89L91.2615 202.237H102.149L112.111 201.658L126.01 200.037L139.331 197.836L155.894 194.94L165.624 193.434L173.5 192.971H178.944C184.262 193.279 189.542 194.055 194.724 195.289L196.666 195.751L210.334 199.342L219.6 200.963C224.535 201.349 229.491 201.356 234.432 201.042C235.19 200.994 235.712 200.963 235.816 200.963C236.187 200.963 240.912 199.573 243.229 198.878L247.894 196.847C249.567 196.118 251.155 195.211 252.632 194.14L254.291 192.938C254.791 192.575 255.247 192.155 255.649 191.686L256.057 191.21C256.306 190.918 256.51 190.591 256.661 190.238C256.965 189.529 257.45 188.854 258.184 188.614C258.27 188.586 258.345 188.569 258.403 188.569C258.44 188.569 258.507 188.571 258.597 188.573C260.47 188.627 262.346 188.53 264.194 188.222L268.474 187.28C269.48 187.059 270.465 186.753 271.419 186.364L271.966 186.141C272.729 185.83 273.458 185.444 274.143 184.987C275.301 184.215 276.319 183.252 277.154 182.138L277.259 181.999C277.737 181.361 278.157 180.682 278.514 179.969L278.624 179.749C279.194 178.607 279.614 177.396 279.873 176.146C280.076 175.165 280.178 174.165 280.178 173.162V169.689L279.715 164.361L278.788 160.307L277.514 156.717L276.821 155.205C276.437 154.365 276.124 153.47 276.124 152.547C276.124 152.454 276.819 150.192 277.167 149.072L278.673 144.323L278.989 143.004C279.241 141.955 279.384 140.884 279.418 139.806L279.462 138.391C279.476 137.946 279.432 137.501 279.33 137.068C279.127 136.205 278.702 135.411 278.097 134.763L277.398 134.014L276.482 133.006C276.321 132.829 276.181 132.634 276.065 132.425C275.8 131.948 275.415 131.55 274.947 131.269L274.917 131.251C274.275 130.866 273.796 130.265 273.506 129.574C273.354 129.21 273.204 128.893 273.113 128.802C272.959 128.648 272.635 127.633 272.419 126.895C272.339 126.623 272.284 126.344 272.249 126.062L272.16 125.353C272.101 124.88 271.927 124.428 271.654 124.037C271.394 123.666 271.053 123.361 270.656 123.145L269.985 122.779L268.48 122.2L268.365 122.137C267.6 121.72 266.93 121.15 266.395 120.462L265.356 118.951C265.201 118.726 264.996 118.54 264.758 118.407L264.495 118.261C264.229 118.114 263.914 118.084 263.626 118.18C263.466 118.234 263.321 118.323 263.202 118.442L263.1 118.545C262.981 118.663 262.839 118.757 262.683 118.819L262.67 118.825C262.455 118.911 262.22 118.932 261.993 118.887L261.946 118.877C261.824 118.853 261.709 118.805 261.605 118.736C261.48 118.653 261.376 118.54 261.303 118.407C261.102 118.038 260.835 117.528 260.835 117.451C260.835 117.358 260.603 116.254 260.487 115.713L260.256 114.323L260.024 112.586L259.908 111.659V110.269V109.574L259.677 112.47V113.165V114.671V115.597L259.213 114.671C258.907 113.981 258.72 113.244 258.663 112.491L258.634 112.122V111.08V110.617L258.534 114.023C258.524 114.376 258.562 114.729 258.647 115.071C258.716 115.344 258.813 115.608 258.939 115.86L259.445 116.871L259.664 117.364C259.779 117.623 259.59 117.914 259.307 117.914C259.176 117.914 259.054 117.979 258.981 118.088L258.928 118.168C258.887 118.23 258.858 118.299 258.844 118.372L258.806 118.562C258.769 118.746 258.766 118.935 258.797 119.121L258.946 120.018C258.968 120.151 259.053 120.266 259.175 120.327C259.336 120.408 259.429 120.582 259.405 120.762L259.288 121.641C259.24 122.003 259.073 122.34 258.815 122.598L258.524 122.889C258.142 123.271 257.875 123.753 257.753 124.279L257.734 124.364C257.64 124.77 257.627 125.191 257.696 125.603L257.823 126.369L258.403 128.57L258.653 129.472C258.854 130.197 258.628 130.973 258.069 131.476C257.906 131.623 257.769 131.795 257.663 131.987L257.568 132.158C257.354 132.542 257.224 132.966 257.184 133.403L257.013 135.288V138.542C257.013 139.459 257.107 140.374 257.294 141.271C257.492 142.222 257.793 143.148 258.191 144.033L258.634 145.018L259.209 146.012C259.672 146.811 260.26 147.531 260.951 148.145L262.109 149.303C262.953 150.377 263.611 151.584 264.058 152.874L264.426 153.937L266.974 159.496L268.041 161.496C268.563 162.476 268.963 163.516 269.233 164.593C269.502 165.67 269.638 166.776 269.638 167.886V169.11L269.456 171.47C269.423 171.903 269.342 172.331 269.216 172.747L269.155 172.948C268.793 174.136 268.031 175.162 266.997 175.851C266.446 176.219 265.831 176.481 265.184 176.625L263.036 177.102L260.256 177.45L256.969 177.826C256.459 177.884 255.956 177.995 255.469 178.157L255.106 178.279C254.452 178.496 253.847 178.837 253.321 179.281C252.851 179.679 252.453 180.154 252.142 180.686L251.8 181.272C249.563 186.027 244.65 188.933 239.406 188.606L233.268 188.222L230.719 187.874L228.635 187.295L226.55 186.716C225.786 186.487 224.983 186.422 224.192 186.525L223.555 186.608C223.004 186.68 222.462 186.805 221.935 186.98L221.016 187.287C220.767 187.369 220.528 187.478 220.302 187.61C219.619 188.008 218.829 188.184 218.042 188.112L215.43 187.874L212.303 187.295L207.09 186.253L201.878 185.21L187.168 181.967L183.461 181.504L180.566 181.272L178.354 181.203C172.428 181.018 166.499 181.39 160.643 182.315L152.882 183.473L126.821 187.411L112.111 189.033L99.3696 189.728H90.1033L80.6053 189.033L76.956 188.273C75.684 188.007 74.4326 187.652 73.2115 187.208L72.5025 186.95C71.6509 186.64 70.8247 186.265 70.0312 185.827L68.9684 185.241C68.2359 184.836 67.5639 184.331 66.9723 183.739L66.7542 183.521C66.2615 183.029 65.8464 182.464 65.5231 181.847C65.0066 180.861 64.7368 179.764 64.7368 178.651V178.099C64.7368 177.667 64.7674 177.235 64.8285 176.807L64.9197 176.169C65.1061 174.865 65.4334 173.584 65.896 172.351L66.2425 171.427C67.0796 169.296 68.2594 167.284 69.7174 165.52C70.949 163.903 72.3414 162.409 73.9393 161.153C74.2338 160.922 74.4374 160.771 74.4664 160.771C74.5176 160.771 75.2552 160.346 76.1005 159.849C77.4034 159.082 78.788 158.462 80.2337 158.021C81.5583 157.616 82.9241 157.36 84.3055 157.259L86.9759 157.064H90.9141L94.4852 157.389C94.6513 157.404 94.8188 157.389 94.9798 157.345L95.2423 157.274Z" fill="white"/>
<path d="M259.677 113.165V112.47L259.908 109.574V110.269V111.659L260.024 112.586L260.256 114.323L260.487 115.713C260.603 116.254 260.835 117.358 260.835 117.451C260.835 117.528 261.102 118.038 261.303 118.407C261.376 118.54 261.48 118.653 261.605 118.736C261.709 118.805 261.824 118.853 261.946 118.877L261.993 118.887C262.22 118.932 262.455 118.911 262.67 118.825L262.683 118.819C262.839 118.757 262.981 118.663 263.1 118.545L263.202 118.442C263.321 118.323 263.466 118.234 263.626 118.18C263.914 118.084 264.229 118.114 264.495 118.261L264.758 118.407C264.996 118.54 265.201 118.726 265.356 118.951L266.395 120.462C266.93 121.15 267.6 121.72 268.365 122.137L268.48 122.2L269.985 122.779L270.656 123.145C271.053 123.361 271.394 123.666 271.654 124.037C271.927 124.428 272.101 124.88 272.16 125.353L272.249 126.062C272.284 126.344 272.339 126.623 272.419 126.895C272.635 127.633 272.959 128.648 273.113 128.802C273.204 128.893 273.354 129.21 273.506 129.574C273.796 130.265 274.275 130.866 274.917 131.251L274.947 131.269C275.415 131.55 275.8 131.948 276.065 132.425C276.181 132.634 276.321 132.829 276.482 133.006L277.398 134.014L278.097 134.763C278.702 135.411 279.127 136.205 279.33 137.068C279.432 137.501 279.476 137.946 279.462 138.391L279.418 139.806C279.384 140.884 279.241 141.955 278.989 143.004L278.673 144.323L277.167 149.072C276.819 150.192 276.124 152.454 276.124 152.547C276.124 153.47 276.437 154.365 276.821 155.205L277.514 156.717L278.788 160.307L279.715 164.361L280.178 169.689V173.162C280.178 174.165 280.076 175.165 279.873 176.146C279.614 177.396 279.194 178.607 278.624 179.749L278.514 179.969C278.157 180.682 277.737 181.361 277.259 181.999L277.154 182.138C276.319 183.252 275.301 184.215 274.143 184.987C273.458 185.444 272.729 185.83 271.966 186.141L271.419 186.364C270.465 186.753 269.48 187.059 268.474 187.28L264.194 188.222C262.346 188.53 260.47 188.627 258.597 188.573C258.507 188.571 258.44 188.569 258.403 188.569C258.345 188.569 258.27 188.586 258.184 188.614C257.45 188.854 256.965 189.529 256.661 190.238C256.51 190.591 256.306 190.918 256.057 191.21L255.649 191.686C255.247 192.155 254.791 192.575 254.291 192.938L252.632 194.14C251.155 195.211 249.567 196.118 247.894 196.847L243.229 198.878C240.912 199.573 236.187 200.963 235.816 200.963C235.712 200.963 235.19 200.994 234.432 201.042C229.491 201.356 224.535 201.349 219.6 200.963L210.334 199.342L196.666 195.751L194.724 195.289C189.542 194.055 184.262 193.279 178.944 192.971H173.5L165.624 193.434L155.894 194.94L139.331 197.836L126.01 200.037L112.111 201.658L102.149 202.237H91.2615L84.5435 201.89C80.3051 201.504 76.1305 200.648 71.9959 199.639C71.8222 199.597 71.713 199.573 71.6865 199.573C71.5707 199.573 70.3047 199.091 68.994 198.579C67.5474 198.014 66.1703 197.286 64.8779 196.424L64.5307 196.193C63.2825 195.361 62.1377 194.383 61.1202 193.281C60.29 192.381 59.5489 191.404 58.9074 190.361L58.0187 188.917L57.6606 188.168C57.0533 186.899 56.6397 185.545 56.4334 184.153C56.3321 183.469 56.2812 182.778 56.2812 182.087V180.761C56.2812 178.792 56.5116 176.83 56.9677 174.914C57.2818 173.595 57.7016 172.304 58.223 171.052L59.177 168.763L60.6827 165.635L62.6518 162.16L63.3164 161.274C64.49 159.71 65.8622 158.304 67.3985 157.094C68.4021 156.303 69.471 155.599 70.5939 154.99L71.1212 154.704C72.3446 154.039 73.6296 153.496 74.9583 153.081C76.0955 152.725 77.2604 152.465 78.4408 152.303L80.1283 152.072C81.7557 151.848 83.3999 151.773 85.0409 151.848L85.4927 151.869C86.9414 151.934 88.3803 152.141 89.7891 152.484L91.5601 152.916C92.1312 153.055 92.6834 153.263 93.205 153.534L94.5174 154.217C95.0362 154.486 95.4564 154.913 95.7179 155.436L95.9005 155.801C95.9728 155.946 96.0105 156.106 96.0105 156.268C96.0105 156.738 95.6959 157.15 95.2423 157.274L94.9798 157.345C94.8188 157.389 94.6513 157.404 94.4852 157.389L90.9141 157.064H86.9759L84.3055 157.259C82.9241 157.36 81.5583 157.616 80.2337 158.021C78.788 158.462 77.4034 159.082 76.1005 159.849C75.2552 160.346 74.5176 160.771 74.4664 160.771C74.4374 160.771 74.2338 160.922 73.9393 161.153C72.3414 162.409 70.949 163.903 69.7174 165.52C68.2594 167.284 67.0796 169.296 66.2425 171.427L65.896 172.351C65.4334 173.584 65.1061 174.865 64.9197 176.169L64.8285 176.807C64.7674 177.235 64.7368 177.667 64.7368 178.099V178.651C64.7368 179.764 65.0066 180.861 65.5231 181.847C65.8464 182.464 66.2615 183.029 66.7542 183.521L66.9723 183.739C67.5639 184.331 68.2359 184.836 68.9684 185.241L70.0312 185.827C70.8247 186.265 71.6509 186.64 72.5025 186.95L73.2115 187.208C74.4326 187.652 75.684 188.007 76.956 188.273L80.6053 189.033L90.1033 189.728H99.3696L112.111 189.033L126.821 187.411L152.882 183.473L160.643 182.315C166.499 181.39 172.428 181.018 178.354 181.203L180.566 181.272L183.461 181.504L187.168 181.967L201.878 185.21L207.09 186.253L212.303 187.295L215.43 187.874L218.042 188.112C218.829 188.184 219.619 188.008 220.302 187.61C220.528 187.478 220.767 187.369 221.016 187.287L221.935 186.98C222.462 186.805 223.004 186.68 223.555 186.608L224.192 186.525C224.983 186.422 225.786 186.487 226.55 186.716L228.635 187.295L230.719 187.874L233.268 188.222L239.406 188.606C244.65 188.933 249.563 186.027 251.8 181.272L252.142 180.686C252.453 180.154 252.851 179.679 253.321 179.281C253.847 178.837 254.452 178.496 255.106 178.279L255.469 178.157C255.956 177.995 256.459 177.884 256.969 177.826L260.256 177.45L263.036 177.102L265.184 176.625C265.831 176.481 266.446 176.219 266.997 175.851C268.031 175.162 268.793 174.136 269.155 172.948L269.216 172.747C269.342 172.331 269.423 171.903 269.456 171.47L269.638 169.11V167.886C269.638 166.776 269.502 165.67 269.233 164.593C268.963 163.516 268.563 162.476 268.041 161.496L266.974 159.496L264.426 153.937L264.058 152.874C263.611 151.584 262.953 150.377 262.109 149.303L260.951 148.145C260.26 147.531 259.672 146.811 259.209 146.012L258.634 145.018L258.191 144.033C257.793 143.148 257.492 142.222 257.294 141.271C257.107 140.374 257.013 139.459 257.013 138.542V135.288L257.184 133.403C257.224 132.966 257.354 132.542 257.568 132.158L257.663 131.987C257.769 131.795 257.906 131.623 258.069 131.476C258.628 130.973 258.854 130.197 258.653 129.472L258.403 128.57L257.823 126.369L257.696 125.603C257.627 125.191 257.64 124.77 257.734 124.364L257.753 124.279C257.875 123.753 258.142 123.271 258.524 122.889L258.815 122.598C259.073 122.34 259.24 122.003 259.288 121.641L259.405 120.762C259.429 120.582 259.336 120.408 259.175 120.327C259.053 120.266 258.968 120.151 258.946 120.018L258.797 119.121C258.766 118.935 258.769 118.746 258.806 118.562L258.844 118.372C258.858 118.299 258.887 118.23 258.928 118.168L258.981 118.088C259.054 117.979 259.176 117.914 259.307 117.914C259.59 117.914 259.779 117.623 259.664 117.364L259.445 116.871L258.939 115.86C258.813 115.608 258.716 115.344 258.647 115.071C258.562 114.729 258.524 114.376 258.534 114.023L258.634 110.617V111.08V112.122L258.663 112.491C258.72 113.244 258.907 113.981 259.213 114.671L259.677 115.597M259.677 113.165C259.677 113.628 259.677 114.578 259.677 114.671M259.677 113.165V114.671M259.677 114.671C259.677 114.763 259.677 115.327 259.677 115.597M259.677 114.671V115.597" stroke="white"/>
<path d="M263.969 120.23C263.639 120.23 263.418 120.57 263.552 120.872L263.685 121.17C263.715 121.238 263.734 121.311 263.74 121.386L263.795 122.041C263.829 122.45 263.767 122.861 263.615 123.242L263.796 122.916C264.059 122.442 264.233 121.925 264.31 121.389L264.422 120.601C264.425 120.586 264.426 120.57 264.426 120.555C264.426 120.376 264.28 120.23 264.101 120.23H263.969Z" fill="black" stroke="black"/>
<path d="M260.031 120.23C259.701 120.23 259.48 120.57 259.614 120.872L259.747 121.17C259.777 121.238 259.796 121.311 259.802 121.386L259.856 122.041C259.891 122.45 259.829 122.861 259.677 123.242L259.858 122.916C260.121 122.442 260.295 121.925 260.372 121.389L260.484 120.601C260.486 120.586 260.487 120.57 260.487 120.555C260.487 120.376 260.342 120.23 260.163 120.23H260.031Z" fill="black" stroke="black"/>
<path d="M269.36 124.255C269.237 124.583 269.068 124.891 268.858 125.171L268.485 125.668C268.481 125.673 268.477 125.677 268.472 125.681C268.419 125.716 268.459 125.798 268.519 125.778L268.81 125.681C268.821 125.677 268.832 125.672 268.841 125.664L269.024 125.511C269.339 125.249 269.519 124.858 269.513 124.448L269.506 123.866L269.36 124.255Z" fill="black"/>
<path d="M269.522 123.822L269.506 123.866M269.506 123.866L269.36 124.255C269.237 124.583 269.068 124.891 268.858 125.171L268.485 125.668C268.481 125.673 268.477 125.677 268.472 125.681C268.419 125.716 268.459 125.798 268.519 125.778L268.81 125.681C268.821 125.677 268.832 125.672 268.841 125.664L269.024 125.511C269.339 125.249 269.519 124.858 269.513 124.448L269.506 123.866Z" stroke="black"/>
<rect width="11.3512" height="68.8023" rx="5.67561" transform="matrix(0.707106 -0.707108 0.707106 0.707108 19.2549 221.854)" fill="white"/>
<rect width="11.3512" height="68.8023" rx="5.67561" transform="matrix(0.707106 -0.707108 0.707106 0.707108 44.2732 221.854)" fill="white"/>
<rect width="11.3512" height="68.8023" rx="5.67561" transform="matrix(0.707106 -0.707108 0.707106 0.707108 69.2922 221.854)" fill="white"/>
<rect width="11.3512" height="68.8023" rx="5.67561" transform="matrix(0.707106 -0.707108 0.707106 0.707108 122.11 221.854)" fill="white"/>
<rect width="11.3512" height="68.8023" rx="5.67561" transform="matrix(0.707106 -0.707108 0.707106 0.707108 145.97 221.854)" fill="white"/>
<rect width="11.3512" height="27.7989" rx="5.67561" transform="matrix(0.707106 -0.707108 0.707106 0.707108 210.505 236.465)" fill="white"/>
<rect width="11.3512" height="68.8023" rx="5.67561" transform="matrix(0.707106 -0.707108 0.707106 0.707108 251.606 221.854)" fill="white"/>
<rect width="11.3512" height="27.7989" rx="5.67561" transform="matrix(0.707106 -0.707108 0.707106 0.707108 289.965 236.465)" fill="white"/>
<rect x="3" y="239.07" width="341" height="6.25476" rx="3.12738" fill="white"/>
</g>
<defs>
<filter id="filter0_d_57_83" x="0" y="0" width="344" height="270.152" filterUnits="userSpaceOnUse" color-interpolation-filters="sRGB">
<feFlood flood-opacity="0" result="BackgroundImageFix"/>
<feColorMatrix in="SourceAlpha" type="matrix" values="0 0 0 0 0 0 0 0 0 0 0 0 0 0 0 0 0 0 127 0" result="hardAlpha"/>
<feOffset dx="-3" dy="2"/>
<feComposite in2="hardAlpha" operator="out"/>
<feColorMatrix type="matrix" values="0 0 0 0 0.290196 0 0 0 0 0.411765 0 0 0 0 0.741176 0 0 0 1 0"/>
<feBlend mode="normal" in2="BackgroundImageFix" result="effect1_dropShadow_57_83"/>
<feBlend mode="normal" in="SourceGraphic" in2="effect1_dropShadow_57_83" result="shape"/>
</filter>
</defs>
</svg>
